<svg id="Layer_1" data-name="Layer 1" xmlns="http://www.w3.org/2000/svg" viewBox="0 0 663.17 112.97"><defs><style>.cls-1{fill:#fff;}.cls-2{fill:#4d4d4d;}.cls-3{fill:#788286;}.cls-4{font-size:77px;fill:#3ca0cc;font-family:Montserrat-Regular, Montserrat;}.cls-5{letter-spacing:-0.02em;}.cls-6{letter-spacing:0em;}</style></defs><title>logo</title><circle class="cls-1" cx="56.17" cy="56.97" r="54"/><path class="cls-2" d="M553,221a52,52,0,1,1-52,52,52.06,52.06,0,0,1,52-52m0-4a56,56,0,1,0,56,56,56,56,0,0,0-56-56Z" transform="translate(-496.83 -216.03)"/><circle class="cls-1" cx="164.17" cy="56.97" r="54"/><path class="cls-3" d="M661,221a52,52,0,1,1-52,52,52.06,52.06,0,0,1,52-52m0-4a56,56,0,1,0,56,56,56,56,0,0,0-56-56Z" transform="translate(-496.83 -216.03)"/><text x="-496.83" y="-216.03"/><text x="-496.83" y="-216.03"/><text x="-496.83" y="-216.03"/><text class="cls-4" transform="translate(24.37 84.11)">D</text><text class="cls-4" transform="translate(135.14 84.11)">B</text><text class="cls-4" transform="translate(237.97 85.19) scale(0.87 1)">Dublin Bi<tspan class="cls-5" x="360.12" y="0">k</tspan><tspan class="cls-6" x="404.78" y="0">es</tspan></text></svg>