<?xml version="1.0" ?><!DOCTYPE svg  PUBLIC '-//W3C//DTD SVG 1.1//EN'  'http://www.w3.org/Graphics/SVG/1.1/DTD/svg11.dtd'><svg fill="#3CA0CC" enable-background="new -0.709 -16.525 141.732 141.732" height="141.732px" id="Livello_1" version="1.1" viewBox="-0.709 -16.525 141.732 141.732" width="141.732px" xml:space="preserve" xmlns="http://www.w3.org/2000/svg" xmlns:xlink="http://www.w3.org/1999/xlink"><g id="Livello_67"><path d="M95.047,94.67c-0.795,1.376-0.321,3.136,1.055,3.93s3.134,0.323,3.93-1.053c0.015-0.023,0.024-0.05,0.038-0.073l0.02,0.011   l4.332-7.521l-0.013-0.007c0.017-0.024,0.034-0.051,0.05-0.075c0.794-1.376,0.322-3.136-1.054-3.93   c-1.376-0.796-3.136-0.323-3.93,1.053c-0.016,0.023-0.024,0.052-0.038,0.075l-0.021-0.012l-4.332,7.521l0.014,0.008   C95.08,94.62,95.062,94.644,95.047,94.67 M95.047,78.271c-0.795,1.376-0.321,3.136,1.055,3.932c1.376,0.794,3.134,0.321,3.93-1.055   c0.015-0.022,0.024-0.051,0.038-0.075l0.02,0.013l4.332-7.521l-0.013-0.007c0.017-0.024,0.034-0.048,0.05-0.074   c0.794-1.376,0.321-3.136-1.054-3.931c-1.376-0.793-3.136-0.322-3.93,1.054c-0.016,0.023-0.024,0.05-0.038,0.074l-0.021-0.012   l-4.332,7.521l0.014,0.007C95.08,78.222,95.062,78.245,95.047,78.271 M80.337,104.365c-0.793,1.375-0.32,3.137,1.056,3.932   c1.375,0.794,3.134,0.32,3.929-1.055c0.016-0.022,0.025-0.051,0.039-0.074l0.02,0.012l4.332-7.521l-0.013-0.007   c0.016-0.022,0.032-0.049,0.049-0.071c0.795-1.38,0.322-3.139-1.053-3.933c-1.376-0.795-3.136-0.323-3.931,1.055   c-0.016,0.023-0.024,0.051-0.038,0.073l-0.02-0.011l-4.332,7.519l0.013,0.009C80.37,104.315,80.353,104.339,80.337,104.365    M80.338,84.98c-0.794,1.376-0.321,3.136,1.054,3.932c1.376,0.794,3.135,0.32,3.931-1.056c0.015-0.022,0.024-0.05,0.038-0.074   l0.02,0.013l4.332-7.521l-0.013-0.007c0.016-0.026,0.033-0.049,0.05-0.075c0.794-1.375,0.321-3.135-1.055-3.93   c-1.375-0.794-3.135-0.321-3.929,1.054c-0.017,0.023-0.025,0.05-0.039,0.075l-0.021-0.012l-4.332,7.521l0.014,0.007   C80.371,84.93,80.353,84.954,80.338,84.98 M79.529,73.563l-0.013-0.007c0.018-0.025,0.032-0.05,0.049-0.074   c0.795-1.376,0.323-3.136-1.053-3.93s-3.137-0.323-3.931,1.053c-0.016,0.023-0.023,0.05-0.039,0.074l-0.019-0.011l-4.332,7.521   l0.013,0.007c-0.018,0.024-0.034,0.05-0.05,0.074c-0.794,1.376-0.321,3.136,1.054,3.93c1.376,0.796,3.137,0.323,3.931-1.053   c0.015-0.022,0.023-0.05,0.039-0.074l0.019,0.013L79.529,73.563z M65.454,98.956c-0.795,1.376-0.323,3.134,1.053,3.929   c1.375,0.795,3.136,0.323,3.931-1.053c0.016-0.023,0.023-0.053,0.038-0.075l0.021,0.012l4.331-7.52l-0.013-0.009   c0.018-0.023,0.033-0.05,0.049-0.074c0.795-1.376,0.322-3.136-1.053-3.932c-1.376-0.794-3.137-0.32-3.932,1.056   c-0.015,0.022-0.022,0.05-0.038,0.073l-0.019-0.011l-4.331,7.521l0.011,0.007C65.486,98.905,65.469,98.93,65.454,98.956    M58.419,87.113c0.017-0.023,0.024-0.051,0.039-0.074l0.02,0.011l4.332-7.521l-0.014-0.007c0.018-0.024,0.034-0.049,0.051-0.075   c0.795-1.376,0.321-3.136-1.055-3.93s-3.136-0.323-3.93,1.053c-0.015,0.024-0.024,0.052-0.037,0.074l-0.021-0.01l-4.332,7.52   l0.013,0.009c-0.017,0.023-0.033,0.049-0.05,0.073c-0.794,1.376-0.322,3.137,1.054,3.932   C55.866,88.959,57.625,88.489,58.419,87.113 M48.347,104.365c-0.794,1.375-0.322,3.137,1.053,3.931   c1.377,0.795,3.137,0.321,3.931-1.054c0.016-0.021,0.024-0.051,0.039-0.074l0.021,0.012l4.332-7.521l-0.014-0.007   c0.017-0.023,0.033-0.049,0.048-0.073c0.796-1.378,0.323-3.137-1.052-3.932c-1.376-0.794-3.137-0.322-3.932,1.053   c-0.014,0.025-0.023,0.053-0.037,0.076l-0.021-0.011l-4.33,7.519l0.012,0.009C48.38,104.315,48.362,104.34,48.347,104.365    M43.195,81.454c1.376,0.796,3.137,0.322,3.931-1.053c0.016-0.022,0.023-0.051,0.038-0.073l0.021,0.011l4.332-7.521l-0.014-0.007   c0.018-0.023,0.033-0.049,0.05-0.075c0.795-1.376,0.322-3.135-1.054-3.93c-1.376-0.794-3.136-0.322-3.931,1.054   c-0.015,0.024-0.023,0.052-0.038,0.075l-0.02-0.011l-4.331,7.519l0.011,0.009c-0.018,0.023-0.031,0.05-0.048,0.074   C41.349,78.902,41.82,80.661,43.195,81.454 M34.971,97.654c-0.795,1.377-0.323,3.139,1.052,3.933   c1.377,0.794,3.137,0.321,3.931-1.055c0.017-0.023,0.024-0.051,0.039-0.073l0.021,0.012l4.331-7.521l-0.013-0.007   c0.017-0.022,0.032-0.049,0.048-0.073c0.794-1.377,0.323-3.138-1.053-3.932c-1.375-0.794-3.136-0.322-3.931,1.054   c-0.016,0.024-0.023,0.052-0.039,0.075l-0.02-0.011l-4.332,7.52l0.014,0.009C35.003,97.605,34.985,97.63,34.971,97.654    M28.851,85.18c1.377,0.795,3.135,0.322,3.93-1.054c0.015-0.023,0.024-0.05,0.037-0.073l0.021,0.011l4.332-7.521l-0.012-0.007   c0.016-0.024,0.032-0.051,0.049-0.075c0.794-1.376,0.322-3.138-1.054-3.932c-1.377-0.794-3.135-0.32-3.93,1.056   c-0.016,0.021-0.025,0.05-0.037,0.072l-0.021-0.011l-4.332,7.521l0.014,0.008c-0.018,0.022-0.033,0.05-0.051,0.074   C27.003,82.627,27.476,84.386,28.851,85.18 M20.022,101.381c-0.795,1.375-0.324,3.135,1.054,3.929   c1.376,0.795,3.135,0.322,3.929-1.053c0.017-0.024,0.023-0.053,0.039-0.074l0.021,0.011l4.332-7.52l-0.015-0.007   c0.019-0.025,0.034-0.052,0.051-0.075c0.796-1.377,0.321-3.136-1.055-3.931c-1.375-0.796-3.135-0.322-3.93,1.054   c-0.014,0.022-0.024,0.05-0.037,0.074l-0.02-0.013l-4.332,7.521l0.012,0.008C20.055,101.331,20.037,101.354,20.022,101.381    M140.315,32.392C140.315,14.503,125.971,0,108.278,0c-7.17,0-13.789,2.384-19.129,6.404C83.812,2.384,77.193,0.001,70.022,0   C54.153,0.001,40.986,11.672,38.438,26.985c-2.078-0.773-4.324-1.197-6.67-1.197c-8.369,0-15.49,5.392-18.158,12.923   c-0.275-0.02-0.555-0.03-0.834-0.03C5.72,38.678,0,44.521,0,51.731c0.001,7.105,5.562,12.885,12.482,13.044v0.008l95.953-0.001   l-0.001-0.003C126.057,64.692,140.315,50.228,140.315,32.392"/></g><g id="Livello_1_1_"/></svg>