<svg width="32" height="32" xmlns="http://www.w3.org/2000/svg">
 <title/>

 <g>
  <title>background</title>
  <rect fill="none" id="canvas_background" height="402" width="582" y="-1" x="-1"/>
 </g>
 <g>
  <title>Layer 1</title>
  <path fill="#3ca0cc" id="Rectangle 1 copy" d="m25.97254,15c-0.24874,-2.24998 -2.15627,-4 -4.47254,-4c-1.05725,0 -2.02934,0.3646 -2.79739,0.97492c-0.86854,-2.87859 -3.54076,-4.97492 -6.70261,-4.97492c-3.86599,0 -7,3.13401 -7,7c0,0.37579 0.02961,0.74467 0.08663,1.10442c-1.76884,0.41316 -3.08663,2.00366 -3.08663,3.89558c0,2.20914 1.79412,4 3.99684,4l20.00632,0c2.20739,0 3.99684,-1.79536 3.99684,-4c0,-2.20914 -1.79412,-4 -3.99684,-4l-0.03062,0zm2.03131,-3.99615c0,-0.55614 0.45191,-1 1.00936,-1l1.98127,0c0.56601,0 1.00937,0.44771 1.00937,1c0,0.55613 -0.45191,1 -1.00937,1l-1.98127,0c-0.56601,0 -1.00936,-0.44772 -1.00936,-1zm-3.14797,-1.07167c-0.46718,-1.69071 -2.01655,-2.93218 -3.85588,-2.93218c-0.92054,0 -1.76845,0.31096 -2.44443,0.83356c0.41238,0.43824 0.78131,0.91782 1.0999,1.43187c0.58474,-0.17273 1.20381,-0.26543 1.84453,-0.26543c1.2279,0 2.37629,0.34048 3.35588,0.93218zm-3.85588,-5.93218c-0.55614,0 -1,-0.45191 -1,-1.00937l0,-1.98126c0,-0.56602 0.44772,-1.00937 1,-1.00937c0.55614,0 1,0.45191 1,1.00937l0,1.98126c0,0.56602 -0.44772,1.00937 -1,1.00937zm-13,26c-0.55614,0 -1,-0.45191 -1,-1.00937l0,-1.98126c0,-0.56602 0.44772,-1.00937 1,-1.00937c0.55614,0 1,0.45191 1,1.00937l0,1.98126c0,0.56602 -0.44772,1.00937 -1,1.00937zm17.95247,-23.94862c-0.39325,-0.39325 -0.38756,-1.02666 0.00662,-1.42084l1.40097,-1.40096c0.40023,-0.40024 1.03031,-0.39715 1.42083,-0.00663c0.39325,0.39325 0.38756,1.02666 -0.00662,1.42084l-1.40097,1.40096c-0.40023,0.40024 -1.03031,0.39715 -1.42083,0.00663zm-9.95247,23.94862c-0.55614,0 -1,-0.45191 -1,-1.00937l0,-1.98126c0,-0.56602 0.44772,-1.00937 1,-1.00937c0.55614,0 1,0.45191 1,1.00937l0,1.98126c0,0.56602 -0.44772,1.00937 -1,1.00937zm1.00783,-23.47921c1.06057,-0.94592 2.45924,-1.52079 3.99217,-1.52079c3.31371,0 6,2.68629 6,6c0,0.31445 -0.02419,0.62324 -0.07081,0.92463c0.26418,0.40035 0.48527,0.83164 0.65665,1.28727c2.54386,0.69555 4.41416,3.02347 4.41416,5.7881c0,3.30697 -2.68637,6 -6.00018,6l-19.99964,0c-3.3132,0 -6.00018,-2.68629 -6.00018,-6c0,-2.21716 1.20754,-4.15836 3.00211,-5.19701c0.1048,-4.87959 4.09316,-8.80299 8.99789,-8.80299c1.85352,0 3.57618,0.56031 5.00783,1.52079zm6.99217,23.47921c-0.55614,0 -1,-0.45191 -1,-1.00937l0,-1.98126c0,-0.56602 0.44772,-1.00937 1,-1.00937c0.55614,0 1,0.45191 1,1.00937l0,1.98126c0,0.56602 -0.44772,1.00937 -1,1.00937zm-12,2c-0.55614,0 -1,-0.45191 -1,-1.00937l0,-1.98126c0,-0.56602 0.44772,-1.00937 1,-1.00937c0.55614,0 1,0.45191 1,1.00937l0,1.98126c0,0.56602 -0.44772,1.00937 -1,1.00937zm8,0c-0.55614,0 -1,-0.45191 -1,-1.00937l0,-1.98126c0,-0.56602 0.44772,-1.00937 1,-1.00937c0.55614,0 1,0.45191 1,1.00937l0,1.98126c0,0.56602 -0.44772,1.00937 -1,1.00937zm0,0"/>
 </g>
</svg>