<svg width="64" height="64" xmlns="http://www.w3.org/2000/svg">

 <g>
  <title>background</title>
  <rect fill="none" id="canvas_background" height="402" width="582" y="-1" x="-1"/>
 </g>
 <g>
  <title>Layer 1</title>
  <path fill="#3ca0cc" id="svg_1" d="m57.105,35.332c-0.563,-0.61 -1.14,-1.233 -1.963,-2.073c1.434,0.16 3.132,0.269 5.344,0.269c0.414,0 0.75,-0.336 0.75,-0.75s-0.336,-0.75 -0.75,-0.75c-2.741,0 -4.645,-0.162 -6.242,-0.393c1.307,-1.275 2.099,-2.052 2.871,-2.811c0.971,-0.953 1.925,-1.889 3.881,-3.795c0.297,-0.289 0.303,-0.764 0.014,-1.061c-0.287,-0.296 -0.764,-0.303 -1.061,-0.014c-1.958,1.907 -2.913,2.845 -3.885,3.799c-0.915,0.898 -1.852,1.817 -3.651,3.571c-0.42,-0.081 -0.834,-0.164 -1.249,-0.248c-2.365,-0.482 -4.811,-0.981 -9.623,-0.981c-3.869,0 -6.218,0.553 -8.221,1.202c1.479,-1.311 3.103,-3.121 5.285,-6.346c2.944,-4.349 4.787,-5.717 7.039,-7.293c0.006,0.004 0.012,0.008 0.019,0.012c0.034,0.022 0.064,0.052 0.103,0.068c0.049,0.021 0.105,0.024 0.159,0.035c0.043,0.008 0.081,0.026 0.126,0.027c0.003,0 0.007,0 0.01,0s0.007,0 0.01,0c2.679,-0.035 4.205,-0.017 5.683,0c0.86,0.01 1.737,0.02 2.847,0.02c0.808,0 1.737,-0.005 2.873,-0.02c0.414,-0.005 0.745,-0.346 0.74,-0.76c-0.005,-0.411 -0.34,-0.74 -0.75,-0.74c-0.003,0 -0.007,0 -0.01,0c-2.679,0.035 -4.205,0.017 -5.683,0c-1.181,-0.014 -2.403,-0.027 -4.202,-0.015c1.332,-0.986 2.859,-2.23 4.798,-4.169c0.293,-0.293 0.293,-0.768 0,-1.061s-0.768,-0.293 -1.061,0c-1.752,1.751 -3.161,2.921 -4.393,3.848c0.109,-1.234 0.288,-2.061 0.477,-2.908c0.284,-1.281 0.578,-2.606 0.614,-5.37c0.005,-0.414 -0.326,-0.754 -0.74,-0.76c-0.003,0 -0.007,0 -0.01,0c-0.41,0 -0.744,0.33 -0.75,0.74c-0.034,2.609 -0.299,3.802 -0.579,5.065c-0.247,1.116 -0.502,2.267 -0.588,4.372c-0.104,0.072 -0.209,0.146 -0.311,0.218c-2.491,1.741 -4.459,3.117 -7.663,7.851c-2.091,3.089 -3.605,4.793 -5.007,6.039c0.392,-1.89 0.72,-4.1 0.72,-7.618c0,-4.843 -0.718,-7.303 -1.413,-9.681c-0.04,-0.137 -0.079,-0.273 -0.118,-0.41c1.823,-1.868 3.054,-2.992 4.243,-4.077c1.219,-1.112 2.479,-2.262 4.368,-4.202c0.289,-0.297 0.283,-0.771 -0.014,-1.061c-0.295,-0.289 -0.771,-0.283 -1.061,0.014c-1.859,1.908 -3.103,3.043 -4.306,4.141c-1.065,0.973 -2.163,1.974 -3.686,3.508c-0.443,-1.792 -0.779,-3.876 -0.779,-7.175c0,-0.414 -0.336,-0.75 -0.75,-0.75s-0.75,0.336 -0.75,0.75c0,2.055 0.134,3.665 0.335,5.038c-0.276,-0.424 -0.504,-0.818 -0.734,-1.219c-0.666,-1.16 -1.354,-2.36 -3.295,-4.352c-0.29,-0.297 -0.764,-0.303 -1.061,-0.014c-0.297,0.289 -0.303,0.764 -0.014,1.061c1.809,1.856 2.42,2.923 3.068,4.052c0.595,1.037 1.216,2.11 2.726,3.749c0.127,0.467 0.257,0.922 0.387,1.368c0.695,2.383 1.352,4.633 1.352,9.261c0,3.123 -0.258,5.123 -0.599,6.862c-0.953,-1.493 -2.238,-3.176 -4.383,-5.322c-3.413,-3.413 -5.582,-4.712 -7.678,-5.969c-0.94,-0.563 -1.863,-1.123 -2.881,-1.849c0.008,-2.277 0.355,-3.309 0.726,-4.382c0.417,-1.205 0.847,-2.45 0.811,-5.267c-0.005,-0.411 -0.34,-0.74 -0.75,-0.74c-0.003,0 -0.006,0 -0.01,0c-0.414,0.005 -0.746,0.346 -0.74,0.76c0.033,2.555 -0.337,3.625 -0.729,4.757c-0.332,0.961 -0.669,1.962 -0.775,3.751c-0.897,-0.732 -1.886,-1.619 -3.041,-2.773c-0.293,-0.293 -0.768,-0.293 -1.061,0s-0.293,0.768 0,1.061c1,1 1.884,1.803 2.7,2.493c-1.178,0.053 -1.772,0.171 -2.338,0.287c-0.792,0.162 -1.544,0.317 -4.145,0.281c-0.448,0.001 -0.754,0.327 -0.76,0.74c-0.005,0.414 0.326,0.754 0.74,0.76c0.244,0.003 0.474,0.004 0.689,0.004c2.229,0 3.014,-0.16 3.775,-0.315c0.767,-0.156 1.51,-0.305 3.916,-0.282c1.126,0.813 2.124,1.417 3.101,2.002c2.112,1.265 4.107,2.461 7.389,5.743c2.721,2.721 3.955,4.599 4.98,6.407c-0.007,0.032 -0.015,0.064 -0.022,0.096c-0.273,0.199 -0.55,0.397 -0.834,0.6c-0.216,0.154 -0.437,0.312 -0.662,0.475c-1.626,0.426 -3.563,0.727 -6.401,0.727c-4.604,0 -6.845,-0.808 -9.217,-1.663c-0.801,-0.289 -1.619,-0.578 -2.525,-0.838c-1.359,-1.368 -2.077,-2.223 -2.824,-3.114c-0.864,-1.032 -1.758,-2.099 -3.709,-4c-0.297,-0.29 -0.772,-0.283 -1.061,0.014c-0.289,0.297 -0.283,0.771 0.014,1.061c1.897,1.848 2.728,2.84 3.606,3.889c0.406,0.484 0.822,0.98 1.348,1.563c-1.271,-0.201 -2.755,-0.326 -4.575,-0.326c-0.414,0 -0.75,0.336 -0.75,0.75s0.336,0.75 0.75,0.75c2.845,0 4.785,0.309 6.414,0.747c0.014,0.014 0.029,0.028 0.042,0.042c-1.417,1.356 -2.29,2.116 -3.134,2.849c-1.006,0.874 -2.046,1.777 -3.983,3.665c-0.296,0.289 -0.303,0.764 -0.014,1.061c0.147,0.15 0.342,0.227 0.537,0.227c0.188,0 0.377,-0.07 0.523,-0.213c1.907,-1.857 2.931,-2.747 3.92,-3.607c0.974,-0.846 1.987,-1.729 3.808,-3.496c0.37,0.128 0.736,0.258 1.103,0.39c2.389,0.86 4.859,1.751 9.726,1.751c1.481,0 2.721,-0.088 3.823,-0.224c-0.785,0.665 -1.648,1.449 -2.624,2.426c-3.401,3.401 -4.772,5.488 -6.098,7.506c-0.215,0.328 -0.432,0.654 -0.652,0.982c-2.478,0.046 -3.808,0.199 -5.082,0.349c-1.36,0.159 -2.645,0.311 -5.295,0.344c-0.414,0.005 -0.746,0.346 -0.74,0.76c0.005,0.411 0.34,0.74 0.75,0.74c0.003,0 0.006,0 0.01,0c2.728,-0.035 4.111,-0.197 5.45,-0.354c1.081,-0.127 2.125,-0.247 3.832,-0.309c-0.97,1.311 -2.209,2.789 -4.179,4.758c-0.293,0.293 -0.293,0.768 0,1.061c0.146,0.146 0.338,0.22 0.53,0.22s0.384,-0.073 0.53,-0.22c1.82,-1.819 3.05,-3.258 4.012,-4.516c-0.059,1.515 -0.158,2.486 -0.262,3.497c-0.137,1.335 -0.279,2.716 -0.315,5.434c-0.005,0.414 0.326,0.754 0.74,0.76c0.003,0 0.007,0 0.01,0c0.41,0 0.745,-0.329 0.75,-0.74c0.035,-2.651 0.167,-3.938 0.307,-5.3c0.137,-1.336 0.279,-2.718 0.315,-5.438c0.001,-0.105 -0.02,-0.205 -0.058,-0.297c0.205,-0.306 0.404,-0.607 0.6,-0.905c1.344,-2.045 2.613,-3.977 5.905,-7.27c1.98,-1.98 3.49,-3.16 4.806,-4.117c0.117,-0.032 0.229,-0.066 0.343,-0.1c-0.332,1.845 -0.583,4.098 -0.583,7.495c0,4.727 -0.064,7.129 -0.125,9.453c-0.015,0.564 -0.03,1.135 -0.044,1.74c-1.766,1.842 -2.257,2.729 -2.72,3.58c-0.453,0.831 -0.88,1.617 -2.683,3.467c-0.289,0.297 -0.283,0.771 0.014,1.061c0.146,0.143 0.334,0.213 0.523,0.213c0.195,0 0.39,-0.076 0.537,-0.227c1.947,-1.998 2.444,-2.912 2.926,-3.797c0.311,-0.57 0.62,-1.127 1.358,-2.012c-0.022,1.453 -0.037,3.187 -0.037,5.467c0,0.414 0.336,0.75 0.75,0.75s0.75,-0.336 0.75,-0.75c0,-2.42 0.017,-4.227 0.042,-5.729c1.375,1.211 2.558,1.93 3.708,2.625c1.468,0.887 2.854,1.725 4.662,3.579c0.147,0.15 0.342,0.227 0.537,0.227c0.188,0 0.378,-0.07 0.523,-0.213c0.297,-0.289 0.303,-0.764 0.014,-1.061c-1.941,-1.992 -3.477,-2.92 -4.961,-3.816c-1.407,-0.85 -2.743,-1.664 -4.442,-3.362c0.014,-0.592 0.029,-1.15 0.043,-1.702c0.062,-2.333 0.126,-4.746 0.126,-9.492c0,-3.728 0.313,-6.033 0.696,-7.95c1.074,1.917 2.394,3.998 5.359,6.963c3.446,3.446 5.854,4.536 8.183,5.59c0.252,0.114 0.503,0.228 0.753,0.344c-0.025,0.078 -0.047,0.158 -0.046,0.245c0.034,2.688 0.057,4.033 0.079,5.377c0.022,1.342 0.045,2.684 0.079,5.367c0.005,0.411 0.34,0.74 0.75,0.74c0.003,0 0.006,0 0.01,0c0.414,-0.005 0.745,-0.346 0.74,-0.76c-0.034,-2.686 -0.057,-4.029 -0.079,-5.373c-0.021,-1.255 -0.042,-2.523 -0.072,-4.875c1.599,0.847 3.313,2.003 5.527,4.218c0.146,0.146 0.338,0.22 0.53,0.22s0.384,-0.073 0.53,-0.22c0.293,-0.293 0.293,-0.768 0,-1.061c-1.274,-1.274 -2.405,-2.224 -3.444,-2.972c0.52,0.064 0.989,0.137 1.465,0.21c1.344,0.207 2.732,0.422 5.469,0.458c0.003,0 0.007,0 0.01,0c0.41,0 0.744,-0.329 0.75,-0.74c0.005,-0.414 -0.326,-0.754 -0.74,-0.76c-2.631,-0.034 -3.907,-0.231 -5.259,-0.44c-1.178,-0.183 -2.39,-0.369 -4.514,-0.437c-0.657,-0.335 -1.292,-0.625 -1.919,-0.909c-2.309,-1.044 -4.488,-2.03 -7.741,-5.283c-2.745,-2.745 -3.978,-4.633 -5.008,-6.454c2.135,-0.739 4.365,-1.38 8.513,-1.38c4.66,0 6.925,0.462 9.322,0.951c0.582,0.118 1.169,0.238 1.795,0.352c1.651,1.621 2.517,2.556 3.346,3.452c0.904,0.979 1.84,1.99 3.777,3.879c0.146,0.143 0.335,0.213 0.523,0.213c0.195,0 0.39,-0.076 0.537,-0.227c0.289,-0.297 0.283,-0.771 -0.014,-1.061c-1.906,-1.869 -2.827,-2.866 -3.719,-3.83z"/>
 </g>
</svg>