<svg width="24" height="24" xmlns="http://www.w3.org/2000/svg">

 <g>
  <title>background</title>
  <rect fill="none" id="canvas_background" height="402" width="582" y="-1" x="-1"/>
 </g>
 <g>
  <title>Layer 1</title>
  <path fill="#3ca0cc" id="svg_2" d="m15,9l1,0c0,-2.2 -1.8,-4 -4,-4l0,1c1.7,0 3,1.3 3,3z"/>
  <path fill="#3ca0cc" id="svg_3" d="m24,12c0,-2.8 -2.2,-5 -5,-5c-0.1,0 -0.2,0 -0.3,0c-0.9,-2.9 -3.5,-5 -6.7,-5c-2.4,0 -4.5,1.2 -5.8,3c0,0 -0.1,0 -0.2,0c-3.3,0 -6,2.7 -6,6c0,2.5 1.5,4.6 3.7,5.5l0,0c-0.4,0.8 -0.7,1.6 -0.7,2.5c0,2.8 2.2,5 5,5l10,0c3.3,0 6,-2.7 6,-6c0,-1.2 -0.3,-2.2 -0.9,-3.1c0.6,-0.9 0.9,-1.8 0.9,-2.9zm-1.5,2c0,0 0,0 0,0c0,0 0,0 0,0zm-20.5,-3c0,-0.3 0,-0.5 0.1,-0.8c0,-0.1 0,-0.2 0.1,-0.2c0,-0.2 0.1,-0.3 0.1,-0.5c0,-0.1 0.1,-0.2 0.1,-0.3c0.1,-0.1 0.1,-0.2 0.2,-0.3c0.1,-0.1 0.1,-0.2 0.2,-0.3c0.1,-0.1 0.2,-0.2 0.3,-0.3c0,-0.1 0.1,-0.2 0.2,-0.3c0.1,0 0.2,-0.1 0.3,-0.2c0.1,-0.1 0.2,-0.2 0.3,-0.2c0.1,0 0.2,-0.1 0.2,-0.1c0.1,-0.1 0.3,-0.1 0.4,-0.2c0.1,0 0.1,0 0.2,-0.1c0.5,-0.1 0.9,-0.2 1.3,-0.2c0.5,0 0.9,0.1 1.3,0.2c0.7,-1.7 2.2,-3 4.1,-3.2c0,0 0.1,0 0.1,0c0.2,0 0.3,0 0.5,0c1.1,0 2.1,0.4 2.9,1c0,0 0,0 0,0c0.9,0.6 1.5,1.5 1.8,2.6c0.1,0.2 0.1,0.4 0.2,0.6c0.1,0.3 0.1,0.5 0.1,0.8l2,0c1.7,0 3,1.3 3,3c0,0.5 -0.1,0.9 -0.3,1.3c-1,-0.8 -2.3,-1.3 -3.7,-1.3c-2.7,0 -5.1,1.8 -5.8,4.4c-0.9,-1.5 -2.4,-2.4 -4.2,-2.4c-1.1,0 -2,0.3 -2.9,0.9c-1.8,-0.4 -3.1,-2 -3.1,-3.9zm2.3,4.6c0,0 0,0 0,0c0,0 0,0 0,0zm13.7,6.4l-4.5,0l-1.5,0l-4,0c-1.7,0 -3,-1.3 -3,-3s1.3,-3 3,-3c1.3,0 2.4,0.8 2.8,2l3.2,0c0,-2.2 1.8,-4 4,-4s4,1.8 4,4s-1.8,4 -4,4z"/>
  <path fill="#3ca0cc" id="svg_4" d="m18,15l0,0l0,1c1.1,0 2,0.9 2,2l1,0c0,-1.7 -1.3,-3 -3,-3z"/>
 </g>
</svg>