<svg width="512" height="512" xmlns="http://www.w3.org/2000/svg">

 <g>
  <title>background</title>
  <rect fill="none" id="canvas_background" height="402" width="582" y="-1" x="-1"/>
 </g>
 <g>
  <title>Layer 1</title>
  <path id="svg_1" stroke-width="30" stroke-miterlimit="10" stroke="#3ca0cc" fill="#ffffff" d="m200.896296,387.948148l-62.218,0l0,0c-0.221,0 0.221,0 0,0c-44.977,0 -80.782,-36.663 -80.782,-81.64c0,-44.977 36.456,-81.537 81.433,-81.537c3.922,0 7.778,0.222 11.557,0.769c13.941,-56.938 65.316,-99.218 126.554,-99.218c71.961,0 130.293,58.319 130.293,130.28c0,10.593 -1.264,20.879 -3.661,30.743c1.212,-0.091 2.423,-0.03 3.661,-0.03c27.7,0 50.163,22.563 50.163,50.263s-22.463,50.37 -50.163,50.37l-67.837,0"/>
  <polygon fill="#3ca0cc" id="svg_2" stroke-width="4" stroke-miterlimit="10" stroke-linecap="round" stroke="#3ca0cc" points="286.7049865722656,271.62615716457367 215.68299865722656,372.24114739894867 274.8680114746094,398.8741430044174 236.3979949951172,487.4041417837143 319.2560119628906,389.99615228176117 257.11199951171875,354.48513543605804 "/>
 </g>
</svg>